<?xml version="1.0" standalone="no"?>
<!DOCTYPE svg PUBLIC "-//W3C//DTD SVG 20010904//EN"
 "http://www.w3.org/TR/2001/REC-SVG-20010904/DTD/svg10.dtd">
<svg version="1.0" xmlns="http://www.w3.org/2000/svg"
 width="375.000000pt" height="375.000000pt" viewBox="0 0 375.000000 375.000000"
 preserveAspectRatio="xMidYMid meet">

<g transform="translate(0.000000,375.000000) scale(0.100000,-0.100000)"
fill="#000000" stroke="none">
<path d="M0 3295 l0 -455 453 2 452 3 3 453 2 452 -455 0 -455 0 0 -455z m770
0 l0 -325 -320 0 -320 0 0 325 0 325 320 0 320 0 0 -325z"/>
<path d="M260 3295 l0 -195 195 0 195 0 0 195 0 195 -195 0 -195 0 0 -195z"/>
<path d="M1030 3685 l0 -65 195 0 195 0 0 -130 0 -130 -65 0 -65 0 0 65 0 65
-65 0 -66 0 3 -62 3 -63 63 -3 62 -3 0 -129 0 -130 -65 0 -65 0 0 -65 0 -65
-65 0 -66 0 3 -127 3 -128 62 -3 62 -3 3 -62 3 -62 63 -3 62 -3 0 -59 0 -59
-62 -3 -63 -3 -3 -62 -3 -62 -62 -3 -62 -3 -3 -62 -3 -62 -127 -3 -127 -3 -3
-62 -3 -63 -59 0 -60 0 0 -130 0 -130 -65 0 -65 0 0 130 0 130 -65 0 -65 0 0
65 0 65 65 0 65 0 0 65 0 65 195 0 196 0 -3 63 -3 62 -127 3 -128 3 0 124 0
125 -130 0 -130 0 0 -65 0 -65 65 0 65 0 0 -125 0 -125 -65 0 -65 0 0 -65 0
-65 -65 0 -65 0 0 255 0 255 -130 0 -130 0 0 -65 0 -65 65 0 65 0 0 -60 0 -60
-65 0 -65 0 0 -715 0 -716 128 3 127 3 3 63 3 62 64 0 65 0 0 -65 0 -66 63 3
62 3 3 63 3 62 -66 0 -65 0 0 65 0 65 65 0 65 0 0 65 0 65 65 0 65 0 0 -195 0
-196 128 3 127 3 3 62 3 62 62 3 62 3 3 63 3 62 -66 0 -65 0 0 65 0 65 -65 0
-65 0 0 65 0 64 63 3 62 3 3 63 3 62 -71 0 -70 0 0 -65 0 -65 -125 0 -125 0 0
65 0 65 65 0 65 0 0 65 0 65 190 0 190 0 0 -65 0 -65 65 0 64 0 3 -62 3 -63
63 -3 62 -3 0 -64 0 -65 -65 0 -65 0 0 -195 0 -195 -65 0 -66 0 3 -63 3 -62
128 -3 127 -3 0 261 0 260 130 0 130 0 0 -65 0 -65 -65 0 -66 0 3 -127 3 -128
63 -3 62 -3 0 -64 0 -65 -65 0 -65 0 0 -125 0 -125 -65 0 -65 0 0 60 0 60 -65
0 -65 0 0 -60 0 -59 -62 -3 -63 -3 -3 -127 -3 -128 131 0 130 0 0 65 0 65 195
0 195 0 0 -65 0 -65 -130 0 -130 0 0 -65 0 -65 -65 0 -65 0 0 -130 0 -130 65
0 65 0 0 65 0 65 65 0 65 0 0 65 0 65 130 0 130 0 0 65 0 65 65 0 65 0 0 -65
0 -65 65 0 65 0 0 -65 0 -65 65 0 65 0 0 65 0 65 65 0 65 0 0 -65 0 -65 65 0
65 0 0 -65 0 -65 260 0 260 0 0 65 0 65 60 0 60 0 0 -65 0 -65 130 0 130 0 0
65 0 65 65 0 65 0 0 65 0 65 65 0 65 0 0 -65 0 -65 65 0 65 0 0 320 0 320
-130 0 -130 0 0 -60 0 -60 65 0 65 0 0 -130 0 -130 -130 0 -130 0 0 -65 0 -65
-65 0 -65 0 0 65 0 65 -65 0 -65 0 0 65 0 65 130 0 130 0 0 65 0 65 -65 0 -65
0 0 60 0 60 65 0 65 0 0 130 0 130 130 0 130 0 0 65 0 64 -62 3 -63 3 -3 62
-3 63 -64 0 -65 0 0 65 0 65 130 0 130 0 0 -65 0 -65 65 0 65 0 0 65 0 65 -65
0 -65 0 0 65 0 65 -130 0 -130 0 0 65 0 65 65 0 65 0 0 130 0 130 65 0 65 0 0
-130 0 -130 65 0 65 0 0 325 0 325 -65 0 -65 0 0 -130 0 -130 -260 0 -260 0 0
65 0 65 -60 0 -60 0 0 65 0 65 60 0 60 0 0 65 0 65 65 0 65 0 0 60 0 60 -125
0 -125 0 0 65 0 65 -70 0 -70 0 0 -65 0 -65 -65 0 -65 0 0 -60 0 -60 -60 0
-60 0 0 125 0 124 63 3 62 3 3 193 2 192 -65 0 -65 0 0 65 0 64 63 3 62 3 3
128 3 127 -66 0 -65 0 0 65 0 65 -65 0 -65 0 0 65 0 65 -65 0 -65 0 0 -65 0
-65 65 0 65 0 0 -65 0 -65 60 0 60 0 0 -65 0 -65 -255 0 -255 0 0 65 0 65 65
0 65 0 0 65 0 65 -65 0 -65 0 0 -65 0 -65 -65 0 -65 0 0 130 0 130 -130 0
-130 0 0 -65 0 -65 -65 0 -65 0 0 65 0 65 -260 0 -260 0 0 -65z m780 -130 l0
-65 65 0 65 0 0 -65 0 -65 -65 0 -65 0 0 -65 0 -65 -130 0 -130 0 0 130 0 130
65 0 65 0 0 65 0 65 65 0 65 0 0 -65z m260 -390 l0 -65 65 0 65 0 0 65 0 65
65 0 65 0 0 -65 0 -65 125 0 125 0 0 -195 0 -195 -60 0 -59 0 -3 -62 -3 -63
-62 -3 -63 -3 0 -59 0 -60 125 0 125 0 0 -65 0 -65 -60 0 -60 0 0 -65 0 -65
60 0 60 0 0 -130 0 -130 -60 0 -60 0 0 -260 0 -260 -65 0 -65 0 0 -65 0 -66
128 3 127 3 3 63 3 62 124 0 124 0 3 -62 3 -63 63 -3 62 -3 0 -64 0 -65 -195
0 -195 0 0 -130 0 -130 -60 0 -60 0 0 -190 0 -190 60 0 60 0 0 -65 0 -65 135
0 135 0 0 65 0 65 60 0 60 0 0 -130 0 -129 -62 -3 -63 -3 -3 -62 -3 -63 -189
0 -190 0 0 195 0 195 -65 0 -65 0 0 -65 0 -65 -65 0 -65 0 0 -65 0 -65 -65 0
-65 0 0 65 0 65 65 0 65 0 0 65 0 65 -65 0 -65 0 0 65 0 65 -65 0 -65 0 0 -65
0 -65 -65 0 -65 0 0 385 0 385 65 0 65 0 0 -260 0 -260 130 0 130 0 0 -60 0
-60 65 0 65 0 0 125 0 125 65 0 65 0 0 65 0 65 -65 0 -64 0 -3 -63 -3 -62
-127 -3 -128 -3 0 66 0 65 130 0 130 0 0 65 0 65 -130 0 -130 0 0 65 0 65 65
0 65 0 0 65 0 65 -65 0 -65 0 0 130 0 130 -65 0 -65 0 0 -130 0 -130 -195 0
-195 0 0 65 0 65 65 0 65 0 0 65 0 65 130 0 130 0 0 65 0 65 65 0 65 0 0 65 0
65 65 0 65 0 0 65 0 65 -65 0 -65 0 0 65 0 65 130 0 130 0 0 130 0 130 -65 0
-65 0 0 -65 0 -65 -65 0 -65 0 0 125 0 125 -65 0 -65 0 0 325 0 325 65 0 65 0
0 -65z m-650 -130 l0 -65 65 0 65 0 2 -192 3 -193 128 -3 127 -3 0 -189 0
-190 -65 0 -65 0 0 -65 0 -65 130 0 130 0 0 -65 0 -65 -65 0 -65 0 0 -65 0
-65 -130 0 -130 0 0 -65 0 -65 -130 0 -130 0 0 65 0 65 -125 0 -125 0 0 65 0
65 65 0 65 0 0 65 0 65 60 0 60 0 0 -65 0 -65 65 0 65 0 0 130 0 130 -125 0
-125 0 0 65 0 65 60 0 60 0 0 65 0 65 65 0 65 0 0 60 0 59 -62 3 -63 3 -3 128
-3 127 -59 0 -60 0 0 65 0 65 60 0 60 0 0 -65 0 -65 65 0 65 0 0 65 0 64 -62
3 -63 3 -3 63 -3 62 66 0 65 0 0 -65z m260 0 l0 -65 65 0 65 0 0 -130 0 -130
-65 0 -65 0 0 130 0 129 -62 3 -63 3 -3 63 -3 62 66 0 65 0 0 -65z m1290 -580
l0 -125 -60 0 -60 0 0 125 0 125 60 0 60 0 0 -125z m-130 -320 l0 -195 -60 0
-60 0 0 195 0 195 60 0 60 0 0 -195z m-2580 -130 l0 -195 -65 0 -65 0 0 195 0
195 65 0 65 0 0 -195z m770 0 l0 -65 -125 0 -125 0 0 65 0 65 125 0 125 0 0
-65z m2070 0 l0 -65 130 0 130 0 0 -130 0 -130 -65 0 -65 0 0 -65 0 -65 65 0
65 0 0 -65 0 -65 -65 0 -65 0 0 -65 0 -65 -125 0 -125 0 0 65 0 65 -65 0 -65
0 0 65 0 65 -65 0 -65 0 0 65 0 65 255 0 255 0 0 65 0 65 -65 0 -65 0 0 65 0
65 -60 0 -60 0 0 65 0 65 60 0 60 0 0 -65z m-390 -195 l0 -130 -60 0 -60 0 0
130 0 130 60 0 60 0 0 -130z m-2190 -65 l0 -65 -65 0 -65 0 0 65 0 65 65 0 65
0 0 -65z m-130 -325 l0 -130 -65 0 -65 0 0 130 0 130 65 0 65 0 0 -130z m510
-195 l0 -65 -60 0 -60 0 0 65 0 65 60 0 60 0 0 -65z m780 -65 l0 -131 -62 3
-63 3 -3 128 -3 127 66 0 65 0 0 -130z m1420 -320 l0 -190 -190 0 -190 0 0
190 0 190 190 0 190 0 0 -190z m-1420 -5 l0 -66 -62 3 -63 3 -3 63 -3 62 66 0
65 0 0 -65z m-390 -250 l0 -65 -60 0 -60 0 0 65 0 65 60 0 60 0 0 -65z m1940
-390 l0 -65 -65 0 -65 0 0 65 0 65 65 0 65 0 0 -65z"/>
<path d="M1680 3425 l0 -65 65 0 65 0 0 65 0 65 -65 0 -65 0 0 -65z"/>
<path d="M2070 2905 l0 -66 63 3 62 3 3 63 3 62 -66 0 -65 0 0 -65z"/>
<path d="M2330 2905 l0 -66 63 3 62 3 3 63 3 62 -66 0 -65 0 0 -65z"/>
<path d="M2070 2645 l0 -65 130 0 130 0 0 65 0 65 -130 0 -130 0 0 -65z"/>
<path d="M2070 1745 l0 -65 65 0 65 0 0 65 0 65 -65 0 -65 0 0 -65z"/>
<path d="M2200 1485 l0 -65 65 0 65 0 0 65 0 65 -65 0 -65 0 0 -65z"/>
<path d="M1550 2395 l0 -65 65 0 65 0 0 65 0 65 -65 0 -65 0 0 -65z"/>
<path d="M1550 2005 l0 -65 65 0 65 0 0 65 0 65 -65 0 -65 0 0 -65z"/>
<path d="M3100 1485 l0 -65 65 0 65 0 0 65 0 65 -65 0 -65 0 0 -65z"/>
<path d="M2842 838 l3 -63 65 0 65 0 3 63 3 62 -71 0 -71 0 3 -62z"/>
<path d="M2842 3298 l3 -453 453 -3 452 -2 0 455 0 455 -455 0 -455 0 2 -452z
m778 -3 l0 -325 -320 0 -320 0 0 325 0 325 320 0 320 0 0 -325z"/>
<path d="M3100 3295 l0 -195 195 0 195 0 0 195 0 195 -195 0 -195 0 0 -195z"/>
<path d="M772 2648 l3 -63 65 0 65 0 3 63 3 62 -71 0 -71 0 3 -62z"/>
<path d="M3620 2645 l0 -65 -130 0 -130 0 0 -125 0 -125 -65 0 -65 0 0 -65 0
-65 65 0 65 0 0 65 0 65 65 0 65 0 0 65 0 65 65 0 65 0 0 60 0 60 65 0 65 0 0
65 0 65 -65 0 -65 0 0 -65z"/>
<path d="M0 450 l0 -450 455 0 455 0 0 450 0 450 -455 0 -455 0 0 -450z m770
0 l0 -320 -320 0 -320 0 0 320 0 320 320 0 320 0 0 -320z"/>
<path d="M260 455 l0 -195 195 0 195 0 0 195 0 195 -195 0 -195 0 0 -195z"/>
<path d="M1037 254 c-4 -4 -7 -63 -7 -131 l0 -123 70 0 71 0 -3 128 -3 127
-60 3 c-34 2 -64 0 -68 -4z"/>
<path d="M1810 65 l0 -65 65 0 65 0 0 65 0 65 -65 0 -65 0 0 -65z"/>
</g>
</svg>
