<svg width="407" height="407" viewBox="0 0 407 407" fill="none" xmlns="http://www.w3.org/2000/svg">
<circle cx="203.063" cy="203.063" r="203.063" fill="white" fill-opacity="0.2"/>
<path d="M406.127 199.57C406.127 311.719 315.212 402.634 203.063 402.634C90.9146 402.634 0 311.719 0 199.57C0 87.4211 110.047 -39.3024 151.97 82.9724C256.777 519.668 406.127 87.4211 406.127 199.57Z" fill="#867FF3"/>
<path d="M407 200.596C407 312.744 316.085 403.659 203.936 403.659C91.7876 403.659 0.873047 312.744 0.873047 200.596C0.873047 88.4467 0.873047 459.556 203.936 200.596C259.753 129.414 407 88.4467 407 200.596Z" fill="#F94C2C"/>
<path d="M406.127 203.271C406.127 315.42 315.212 406.334 203.063 406.334C90.9146 406.334 0 315.42 0 203.271C0 91.1219 90.9146 317.248 203.063 317.248C315.212 317.248 406.127 91.1219 406.127 203.271Z" fill="#E61011"/>
</svg>
